<?xml version="1.0" encoding="utf-8"?>
<!-- Generator: Adobe Illustrator 25.4.1, SVG Export Plug-In . SVG Version: 6.00 Build 0)  -->
<svg version="1.1" id="Capa_1" xmlns="http://www.w3.org/2000/svg" xmlns:xlink="http://www.w3.org/1999/xlink" x="0px" y="0px"
	 viewBox="0 0 595.28 323.26" style="enable-background:new 0 0 595.28 323.26;" xml:space="preserve">
<style type="text/css">
	.st0{fill:#010202;}
	.st1{fill:none;stroke:#FFFFFF;stroke-width:7;stroke-linecap:round;stroke-miterlimit:10;}
	.st2{fill:none;stroke:#FFFFFF;stroke-width:7;stroke-miterlimit:10;}
	.st3{fill:none;stroke:#010202;stroke-width:7;stroke-linecap:round;stroke-miterlimit:10;}
	.st4{fill:none;stroke:#010202;stroke-width:7;stroke-miterlimit:10;}
</style>
<rect x="-12.38" y="-10.88" class="st0" width="626.63" height="351"/>
<g>
	<path class="st1" d="M464.92,181.29c0,0,18.56,11.81,41.06,11.81c22.5,0,42.75-16.88,39.94-24.75S486.02,80.6,403.05,59.79
		c-63.69-15.98-120.38-19.13-208.13,40.31c-90.32,61.18-93.19,18.75-128.25-15.94c-2.68-2.65-19.31,5.81-17.44,27.19
		c1.03,11.78,11.37,37.41,40.78,48.28c6.47,2.39,22.76,2.74,22.71,3.59c-0.04,0.65-14.41-0.91-22.43,0.07
		c-8.51,1.05-40.48,8.45-41.06,37.13c-0.84,41.2,31.38,31.5,32.2,27c1.13-6.19,29.09-28.11,52.17-27.7
		c72,1.27,132.27,154.62,329.06,59.2c55.69-27,80.65-71.79,83.46-88.1"/>
	<path class="st1" d="M398.69,58.38c-11.13-20.17-41.32-32.45-108.44-20.73C182.65,56.44,168.19,115,168.19,115.84"/>
	<path class="st1" d="M138.74,129.19c0,0-26.22,14.49-25.8,36.21c0.47,24.28,13.18,32.06,24.24,34.88"/>
	<path class="st1" d="M71.17,128.41c17.25,25.88,41.91,26.58,43.17,26.86"/>
	<path class="st1" d="M118.42,147.12c0,0-19.13-2.95-38.25-29.58"/>
	<path class="st1" d="M113.08,171.87c0,0-36.42,1.83-53.58,28.13"/>
	<path class="st1" d="M114.53,182.55c0,0-14.48,2.25-26.3,13.78"/>
	<path class="st1" d="M433.14,70.76c0,0-34.03,9.28-48.94,30.66c-14.91,21.38-14.91,32.91-22.78,39.38
		c-7.88,6.47-18.28,8.16-18.56,10.41c-0.28,2.25,9.19,6.66,10.88,15.84c3.6,19.61-1.97,73.13,58.03,111"/>
	<circle class="st2" cx="440.74" cy="135.02" r="13.52"/>
	<circle class="st1" cx="440.17" cy="135.02" r="28.83"/>
	<path class="st1" d="M223.16,176.95c17.53-4.31,74.56-7.51,95.28,1.96"/>
	<path class="st1" d="M314.8,193.43c0,0-21.86-5.05-63.8,4.28"/>
	<path class="st1" d="M267.59,216.06c0,0,19.61-7.57,46.48-6.11"/>
	<path class="st1" d="M314.43,225.85c0,0-12.26-0.24-22.88,5.21"/>
</g>
</svg>
